<svg xmlns="http://www.w3.org/2000/svg" xmlns:xlink="http://www.w3.org/1999/xlink" id="Layer_1" x="0px" y="0px" viewBox="0 0 500 293.6" style="enable-background:new 0 0 500 293.6;" xml:space="preserve"><style type="text/css">	.st0{fill:#E0E320;}</style><g>	<path class="st0" d="M152.9,285.9c28.4,0,54.7-8.5,76.7-23.1H76.2C98.2,277.3,124.5,285.9,152.9,285.9z"></path>	<path class="st0" d="M98.2,178.1H17.4c1.7,7.5,4,14.8,6.9,21.7h94.4C110.3,194.4,103.3,186.9,98.2,178.1z"></path>	<path class="st0" d="M118.8,93.5H24.3c-2.9,7-5.1,14.3-6.9,21.7h80.8C103.3,106.5,110.3,99,118.8,93.5z"></path>	<path class="st0" d="M89.6,146.7c0-3.7,0.5-7.3,1.1-10.9H14.3c-0.3,3.6-0.6,7.2-0.6,10.9c0,3.7,0.3,7.3,0.5,10.9h76.4  C90,154,89.6,150.4,89.6,146.7z"></path>	<path class="st0" d="M152.9,7.6c-28.3,0-54.7,8.5-76.7,23.1h153.3C207.6,16.1,181.2,7.6,152.9,7.6z"></path>	<path class="st0" d="M354.8,7.6C315,7.6,279.3,24.5,254,51.3c0,0-0.1-0.1-0.1-0.1h-202C45.6,57.9,40,65.1,35.1,72.9H237h33.7  c4.1,6.5,7.7,13.4,10.7,20.6h-55.1H187c8.5,5.5,15.5,13,20.5,21.7h11.8h69c1.5,6.7,2.6,13.5,3.2,20.6h-75.3h-1.1  c0.6,3.6,1.1,7.2,1.1,10.9c0,3.7-0.5,7.3-1.1,10.9h1.6h74.7c-0.5,7-1.6,13.9-3.1,20.6h-68.7h-12.1c-5.1,8.8-12,16.3-20.5,21.7h39.2  h55.2c-3,7.2-6.6,14-10.7,20.6H237H35c4.9,7.8,10.5,15.1,16.8,21.7h202.1c0,0,0.1-0.1,0.1-0.1c25.3,26.8,61,43.8,100.8,43.8  c76.8,0,139.1-62.3,139.1-139.1S431.7,7.6,354.8,7.6z M354.8,210c-33.7,0-61-26.5-63-59.7c0.1-1.2,0.2-2.4,0.2-3.6  s-0.1-2.4-0.2-3.6c1.9-33.2,29.3-59.7,63-59.7c34.9,0,63.3,28.4,63.3,63.3S389.7,210,354.8,210z"></path></g></svg>